# This file uses centimeters as units for non-parametric coordinates.

mtllib angle_block.mtl
g default
v 1.500000 0.000000 0.000000
v 1.500000 0.000000 -1.000000
v 0.500000 0.000000 -1.000000
v 0.500000 0.000000 0.000000
v 0.500000 1.000000 -1.000000
v 0.500000 1.000000 0.000000
v 0.000000 -1.000000 1.000000
v 0.000000 1.000000 1.000000
v -1.000000 1.000000 1.000000
v -1.000000 -1.000000 1.000000
v -1.000000 1.000000 -1.000000
v 0.000000 1.000000 0.000000
v 1.500000 -1.000000 -1.000000
v -1.000000 -1.000000 -1.000000
v 1.500000 -1.000000 0.000000
v 0.000000 -1.000000 0.000000
vt 0.375000 0.000000
vt 0.375000 0.250000
vt 0.375000 0.500000
vt 0.375000 0.750000
vt 0.625000 0.750000
vt 0.375000 1.000000
vt 0.875000 0.000000
vt 0.125000 0.000000
vt 0.125000 0.250000
vt 0.375000 0.687500
vt 0.375000 0.562500
vt 0.500000 0.687500
vt 0.250000 0.062500
vt 0.250000 0.187500
vt 0.125000 0.187500
vt 0.125000 0.062500
vt 0.750000 0.000000
vt 0.500000 1.000000
vt 0.500000 0.875000
vt 0.625000 0.875000
vt 0.500000 0.250000
vt 0.500000 0.375000
vt 0.500000 0.250000
vt 0.500000 0.000000
vt 0.375000 0.937500
vt 0.375000 0.812500
vt 0.437500 0.812500
vt 0.437500 0.937500
vt 0.312500 0.125000
vt 0.187500 0.125000
vt 0.187500 0.000000
vt 0.312500 0.000000
vt 0.562500 0.500000
vt 0.562500 0.375000
vt 0.625000 0.625000
vt 0.562500 0.625000
vt 0.562500 0.500000
vt 0.750000 0.125000
vt 0.875000 0.125000
vt 0.500000 0.625000
vt 0.437500 0.562500
vt 0.437500 0.625000
vn 0.000000 1.000000 0.000000
vn 0.000000 1.000000 0.000000
vn 0.000000 1.000000 0.000000
vn 0.000000 1.000000 0.000000
vn 1.000000 0.000000 0.000000
vn 1.000000 0.000000 0.000000
vn 1.000000 0.000000 0.000000
vn 1.000000 0.000000 0.000000
vn 0.000000 0.000000 1.000000
vn 0.000000 0.000000 1.000000
vn 0.000000 0.000000 1.000000
vn 0.000000 0.000000 1.000000
vn 0.000000 1.000000 0.000000
vn 0.000000 1.000000 0.000000
vn 0.000000 1.000000 0.000000
vn 0.000000 1.000000 0.000000
vn 0.000000 1.000000 0.000000
vn 0.000000 1.000000 0.000000
vn 0.000000 0.000000 -1.000000
vn 0.000000 0.000000 -1.000000
vn 0.000000 0.000000 -1.000000
vn 0.000000 0.000000 -1.000000
vn 0.000000 0.000000 -1.000000
vn 0.000000 0.000000 -1.000000
vn 0.000000 -1.000000 0.000000
vn 0.000000 -1.000000 0.000000
vn 0.000000 -1.000000 0.000000
vn 0.000000 -1.000000 0.000000
vn 0.000000 -1.000000 0.000000
vn 0.000000 -1.000000 0.000000
vn 1.000000 0.000000 0.000000
vn 1.000000 0.000000 0.000000
vn 1.000000 0.000000 0.000000
vn 1.000000 0.000000 0.000000
vn -1.000000 0.000000 0.000000
vn -1.000000 0.000000 0.000000
vn -1.000000 0.000000 0.000000
vn -1.000000 0.000000 0.000000
vn 1.000000 0.000000 0.000000
vn 1.000000 0.000000 0.000000
vn 1.000000 0.000000 0.000000
vn 1.000000 0.000000 0.000000
vn 0.000000 0.000000 1.000000
vn 0.000000 0.000000 1.000000
vn 0.000000 0.000000 1.000000
vn 0.000000 0.000000 1.000000
vn 0.000000 0.000000 1.000000
vn 0.000000 0.000000 1.000000
s 1
g polySurface2
usemtl initialShadingGroup
f 1/28/1 2/27/2 4/25/3
f 4/25/3 2/27/2 3/26/4
s 2
f 4/32/5 3/31/6 6/29/7
f 6/29/7 3/31/6 5/30/8
s 3
f 7/24/9 8/23/10 10/1/11
f 10/1/11 8/23/10 9/2/12
s 4
f 6/34/13 5/33/14 12/22/15
f 5/33/14 11/3/16 12/22/15
f 11/3/16 9/2/17 12/22/15
f 9/2/17 8/21/18 12/22/15
s 5
f 5/37/19 3/36/20 11/3/21
f 11/3/21 3/36/20 14/4/22
f 14/4/22 3/36/20 13/5/23
f 3/36/20 2/35/24 13/5/23
s 6
f 15/20/25 16/19/26 13/5/27
f 13/5/27 16/19/26 14/4/28
f 14/4/28 16/19/26 10/6/29
f 16/19/26 7/18/30 10/6/29
s 7
f 2/39/31 1/38/32 13/7/33
f 13/7/33 1/38/32 15/17/34
s 8
f 14/8/35 10/1/36 11/9/37
f 11/9/37 10/1/36 9/2/38
s 9
f 16/16/39 12/15/40 7/13/41
f 7/13/41 12/15/40 8/14/42
s 10
f 6/41/43 12/11/44 4/42/45
f 12/11/44 16/10/46 4/42/45
f 16/10/46 15/12/47 4/42/45
f 4/42/45 15/12/47 1/40/48
