# This file uses centimeters as units for non-parametric coordinates.

mtllib beveled_block.mtl
g default
v 2.000000 -1.000000 -1.000000
v 0.000000 1.000000 -1.000000
v 0.000000 1.000000 1.000000
v 2.000000 -1.000000 1.000000
v -2.000000 -1.000000 -1.000000
v -2.000000 -1.000000 1.000000
v -2.000000 1.000000 1.000000
v -2.000000 1.000000 -1.000000
vt 0.146447 0.750000
vt 0.853553 0.750000
vt 0.853553 0.250000
vt 0.146447 0.250000
vt 0.125000 0.000000
vt 0.375000 0.000000
vt 0.375000 0.250000
vt 0.125000 0.250000
vt 0.375000 0.750000
vt 0.625000 0.750000
vt 0.625000 1.000000
vt 0.375000 1.000000
vt 0.500000 0.500000
vt 0.375000 0.500000
vt 0.500000 0.250000
vt 0.500000 0.500000
vt 0.625000 0.000000
vt 0.500000 0.250000
vn 0.707107 0.707107 0.000000
vn 0.707107 0.707107 0.000000
vn 0.707107 0.707107 0.000000
vn 0.707107 0.707107 0.000000
vn -1.000000 0.000000 0.000000
vn -1.000000 0.000000 0.000000
vn -1.000000 0.000000 0.000000
vn -1.000000 0.000000 0.000000
vn 0.000000 -1.000000 0.000000
vn 0.000000 -1.000000 0.000000
vn 0.000000 -1.000000 0.000000
vn 0.000000 -1.000000 0.000000
vn 0.000000 0.000000 -1.000000
vn 0.000000 0.000000 -1.000000
vn 0.000000 0.000000 -1.000000
vn 0.000000 0.000000 -1.000000
vn 0.000000 1.000000 0.000000
vn 0.000000 1.000000 0.000000
vn 0.000000 1.000000 0.000000
vn 0.000000 1.000000 0.000000
vn 0.000000 0.000000 1.000000
vn 0.000000 0.000000 1.000000
vn 0.000000 0.000000 1.000000
vn 0.000000 0.000000 1.000000
s 1
g beveled_block_polySurface1
usemtl beveled_block_initialShadingGroup
f 1/1/1 2/2/2 4/4/3
f 4/4/3 2/2/2 3/3/4
s 2
f 5/5/5 6/6/6 8/8/7
f 8/8/7 6/6/6 7/7/8
s 3
f 5/9/9 1/10/10 6/12/11
f 6/12/11 1/10/10 4/11/12
s 4
f 1/10/13 5/9/14 2/13/15
f 2/13/15 5/9/14 8/14/16
s 5
f 3/15/17 2/16/18 7/7/19
f 7/7/19 2/16/18 8/14/20
s 6
f 4/17/21 3/18/22 6/6/23
f 6/6/23 3/18/22 7/7/24
