# A unit cube with 6 quads (8 vertices, 6 normals, 4 texcoords)

mtllib cube_quads.mtl
g default
v -0.5 -0.5  0.5
v  0.5 -0.5  0.5
v  0.5  0.5  0.5
v -0.5  0.5  0.5
v  0.5  0.5 -0.5
v -0.5  0.5 -0.5
v  0.5 -0.5 -0.5
v -0.5 -0.5 -0.5

vt 0.0 0.0
vt 1.0 0.0
vt 1.0 1.0
vt 0.0 1.0

vn  0.0  0.0  1.0
vn  0.0  1.0  0.0
vn  0.0  0.0 -1.0
vn  0.0 -1.0  0.0
vn  1.0  0.0  0.0
vn -1.0  0.0  0.0

g pCube1
usemtl material0
f 1/1/1 2/2/1 3/3/1 4/4/1
f 4/1/2 3/2/2 5/3/2 6/4/2
f 6/3/3 5/4/3 7/1/3 8/2/3
f 8/1/4 7/2/4 2/3/4 1/4/4
f 2/1/5 7/2/5 5/3/5 3/4/5
f 8/1/6 1/2/6 4/3/6 6/4/6
