# This file uses centimeters as units for non-parametric coordinates.

mtllib tongued_block.mtl
g default
v 2.000000 1.000000 -0.500000
v 2.000000 0.000000 -0.500000
v -2.000000 0.000000 -0.500000
v -2.000000 1.000000 -0.500000
v 2.000000 0.000000 -1.500000
v -2.000000 0.000000 -1.500000
v 2.000000 0.000000 1.500000
v -2.000000 0.000000 1.500000
v -2.000000 -1.000000 1.500000
v 2.000000 -1.000000 1.500000
v -2.000000 1.000000 0.500000
v 2.000000 1.000000 0.500000
v 2.000000 -1.000000 -1.500000
v -2.000000 -1.000000 -1.500000
v 2.000000 0.000000 0.500000
v -2.000000 0.000000 0.500000
vt 0.375000 0.000000
vt 0.625000 0.000000
vt 0.375000 0.750000
vt 0.625000 0.750000
vt 0.375000 1.000000
vt 0.625000 1.000000
vt 0.875000 0.000000
vt 0.125000 0.000000
vt 0.400000 0.833333
vt 0.400000 0.750000
vt 0.600000 0.750000
vt 0.600000 0.833333
vt 0.600000 0.687500
vt 0.600000 0.750000
vt 0.400000 0.750000
vt 0.400000 0.687500
vt 0.375000 0.125000
vt 0.291667 0.250000
vt 0.291667 0.125000
vt 0.708333 0.250000
vt 0.625000 0.125000
vt 0.708333 0.125000
vt 0.625000 0.333333
vt 0.375000 0.333333
vt 0.375000 0.125000
vt 0.625000 0.125000
vt 0.400000 0.062500
vt 0.400000 0.000000
vt 0.600000 0.000000
vt 0.600000 0.062500
vt 0.400000 0.916667
vt 0.600000 0.916667
vt 0.600000 1.000000
vt 0.400000 1.000000
vt 0.375000 0.416667
vt 0.625000 0.416667
vt 0.625000 0.625000
vt 0.375000 0.625000
vt 0.875000 0.125000
vt 0.791667 0.250000
vt 0.791667 0.125000
vt 0.208333 0.250000
vt 0.125000 0.125000
vt 0.208333 0.125000
vn -0.000000 -0.000000 -1.000000
vn -0.000000 -0.000000 -1.000000
vn -0.000000 -0.000000 -1.000000
vn 0.000000 0.000000 -1.000000
vn 0.000000 1.000000 0.000000
vn 0.000000 1.000000 0.000000
vn 0.000000 1.000000 0.000000
vn 0.000000 1.000000 0.000000
vn 0.000000 0.000000 1.000000
vn 0.000000 0.000000 1.000000
vn 0.000000 0.000000 1.000000
vn 0.000000 0.000000 1.000000
vn 0.000000 1.000000 0.000000
vn 0.000000 1.000000 0.000000
vn 0.000000 1.000000 0.000000
vn 0.000000 1.000000 0.000000
vn 0.000000 0.000000 -1.000000
vn 0.000000 0.000000 -1.000000
vn 0.000000 0.000000 -1.000000
vn 0.000000 0.000000 -1.000000
vn 0.000000 -1.000000 0.000000
vn 0.000000 -1.000000 0.000000
vn 0.000000 -1.000000 0.000000
vn 0.000000 -1.000000 0.000000
vn 1.000000 0.000000 0.000000
vn 1.000000 0.000000 0.000000
vn 1.000000 0.000000 0.000000
vn 1.000000 0.000000 0.000000
vn 1.000000 0.000000 0.000000
vn 1.000000 0.000000 0.000000
vn 1.000000 0.000000 0.000000
vn 1.000000 0.000000 0.000000
vn -1.000000 0.000000 0.000000
vn -1.000000 0.000000 0.000000
vn -1.000000 0.000000 0.000000
vn -1.000000 0.000000 0.000000
vn -1.000000 0.000000 0.000000
vn -1.000000 0.000000 0.000000
vn -1.000000 0.000000 0.000000
vn -1.000000 0.000000 0.000000
vn -0.000000 0.000000 1.000000
vn -0.000000 -0.000000 1.000000
vn -0.000000 -0.000000 1.000000
vn 0.000000 -0.000000 1.000000
vn 0.000000 1.000000 0.000000
vn 0.000000 1.000000 0.000000
vn 0.000000 1.000000 0.000000
vn 0.000000 1.000000 0.000000
s 1
g polySurface2
usemtl initialShadingGroup
f 1/30/1 2/29/2 4/27/3
f 4/27/3 2/29/2 3/28/4
s 2
f 3/34/5 2/33/6 6/31/7
f 6/31/7 2/33/6 5/32/8
s 3
f 7/26/9 8/25/10 10/2/11
f 10/2/11 8/25/10 9/1/12
s 4
f 1/36/13 4/35/14 12/23/15
f 12/23/15 4/35/14 11/24/16
s 5
f 6/38/17 5/37/18 14/3/19
f 14/3/19 5/37/18 13/4/20
s 6
f 14/3/21 13/4/22 9/5/23
f 9/5/23 13/4/22 10/6/24
s 7
f 1/40/25 12/20/26 2/41/27
f 12/20/26 15/22/28 2/41/27
f 7/21/29 10/2/30 15/22/28
f 10/2/30 13/7/31 15/22/28
f 15/22/28 13/7/31 2/41/27
f 2/41/27 13/7/31 5/39/32
s 8
f 6/43/33 14/8/34 3/44/35
f 14/8/34 9/1/36 3/44/35
f 8/17/37 16/19/38 9/1/36
f 9/1/36 16/19/38 3/44/35
f 3/44/35 16/19/38 4/42/39
f 16/19/38 11/18/40 4/42/39
s 9
f 11/16/41 16/15/42 12/13/43
f 12/13/43 16/15/42 15/14/44
s 10
f 7/12/45 15/11/46 8/9/47
f 8/9/47 15/11/46 16/10/48
